<svg width="40" height="40" viewBox="0 0 40 40" fill="none" xmlns="http://www.w3.org/2000/svg">
<path fill-rule="evenodd" clip-rule="evenodd" d="M20.2454 29.9992C18.8904 29.9992 17.5694 29.9842 16.2624 29.9572C14.5904 29.9242 13.4334 28.8402 13.2444 27.1282C12.9294 24.2882 12.3904 17.5942 12.3854 17.5272C12.3514 17.1142 12.6594 16.7522 13.0724 16.7192C13.4794 16.7082 13.8474 16.9942 13.8804 17.4062C13.8854 17.4742 14.4234 24.1452 14.7354 26.9632C14.8424 27.9362 15.3674 28.4382 16.2934 28.4572C18.7934 28.5102 21.3444 28.5132 24.0944 28.4632C25.0784 28.4442 25.6104 27.9522 25.7204 26.9562C26.0304 24.1622 26.5704 17.4742 26.5764 17.4062C26.6094 16.9942 26.9744 16.7062 27.3834 16.7192C27.7964 16.7532 28.1044 17.1142 28.0714 17.5272C28.0654 17.5952 27.5234 24.3062 27.2114 27.1212C27.0174 28.8682 25.8634 29.9312 24.1214 29.9632C22.7884 29.9862 21.5024 29.9992 20.2454 29.9992Z" fill="#F04438"/>
<path fill-rule="evenodd" clip-rule="evenodd" d="M28.708 14.9893H11.75C11.336 14.9893 11 14.6533 11 14.2393C11 13.8253 11.336 13.4893 11.75 13.4893H28.708C29.122 13.4893 29.458 13.8253 29.458 14.2393C29.458 14.6533 29.122 14.9893 28.708 14.9893Z" fill="#F04438"/>
<path fill-rule="evenodd" clip-rule="evenodd" d="M25.4406 14.989C24.3026 14.989 23.3146 14.178 23.0906 13.062L22.8476 11.846C22.7966 11.661 22.5856 11.5 22.3456 11.5H18.1126C17.8726 11.5 17.6616 11.661 17.6006 11.892L17.3676 13.062C17.1446 14.178 16.1556 14.989 15.0176 14.989C14.6036 14.989 14.2676 14.653 14.2676 14.239C14.2676 13.825 14.6036 13.489 15.0176 13.489C15.4436 13.489 15.8136 13.185 15.8976 12.767L16.1406 11.551C16.3876 10.619 17.1946 10 18.1126 10H22.3456C23.2636 10 24.0706 10.619 24.3076 11.506L24.5616 12.767C24.6446 13.185 25.0146 13.489 25.4406 13.489C25.8546 13.489 26.1906 13.825 26.1906 14.239C26.1906 14.653 25.8546 14.989 25.4406 14.989Z" fill="#F04438"/>
</svg>
