<svg width="20" height="21" viewBox="0 0 20 21" fill="none" xmlns="http://www.w3.org/2000/svg">
<mask id="mask0_481_1145" style="mask-type:alpha" maskUnits="userSpaceOnUse" x="0" y="0" width="20" height="21">
<path fill-rule="evenodd" clip-rule="evenodd" d="M0 0H19.2849V20.721H0V0Z" fill="white"/>
</mask>
<g mask="url(#mask0_481_1145)">
<path fill-rule="evenodd" clip-rule="evenodd" d="M5.20262 15.44C5.43162 15.44 5.66062 15.469 5.88462 15.529C6.56062 15.711 7.14762 16.163 7.49562 16.77C7.72162 17.151 7.84662 17.596 7.85062 18.05C7.85062 18.7 8.37262 19.221 9.01462 19.221H10.2676C10.9066 19.221 11.4286 18.703 11.4316 18.064C11.4276 17.358 11.7036 16.687 12.2086 16.182C12.7066 15.684 13.4026 15.385 14.0986 15.405C14.5546 15.416 14.9936 15.539 15.3806 15.759C15.9376 16.078 16.6486 15.888 16.9706 15.338L17.6346 14.231C17.7826 13.976 17.8256 13.656 17.7466 13.361C17.6686 13.066 17.4726 12.81 17.2086 12.659C16.5906 12.303 16.1496 11.729 15.9666 11.041C15.7856 10.366 15.8846 9.629 16.2376 9.022C16.4676 8.622 16.8046 8.285 17.2086 8.053C17.7506 7.736 17.9406 7.027 17.6256 6.475C17.6126 6.453 17.6006 6.43 17.5906 6.406L17.0046 5.39C16.6856 4.835 15.9756 4.644 15.4186 4.961C14.8166 5.317 14.1006 5.419 13.4126 5.238C12.7256 5.06 12.1496 4.625 11.7906 4.011C11.5606 3.627 11.4356 3.18 11.4316 2.725C11.4406 2.383 11.3206 2.076 11.1026 1.851C10.8856 1.627 10.5806 1.5 10.2676 1.5H9.01462C8.70462 1.5 8.41462 1.621 8.19562 1.839C7.97762 2.058 7.85862 2.349 7.86062 2.659C7.83962 4.121 6.64462 5.298 5.19762 5.298C4.73362 5.293 4.28662 5.168 3.89862 4.936C3.35362 4.626 2.64162 4.817 2.32262 5.372L1.64562 6.485C1.33562 7.023 1.52562 7.734 2.07762 8.055C2.89662 8.529 3.40762 9.413 3.40762 10.361C3.40762 11.309 2.89662 12.192 2.07562 12.667C1.52662 12.985 1.33662 13.692 1.65462 14.242L2.28562 15.33C2.44162 15.611 2.69662 15.814 2.99162 15.897C3.28562 15.979 3.60962 15.944 3.87962 15.794C4.27662 15.561 4.73862 15.44 5.20262 15.44ZM10.2673 20.721H9.01432C7.54532 20.721 6.35032 19.527 6.35032 18.058C6.34832 17.877 6.29632 17.689 6.19932 17.526C6.04232 17.252 5.78832 17.056 5.49532 16.978C5.20432 16.9 4.88532 16.943 4.62332 17.095C3.99532 17.445 3.25632 17.53 2.58032 17.34C1.90532 17.149 1.32232 16.685 0.98032 16.07L0.35532 14.993C-0.37568 13.725 0.0593197 12.1 1.32532 11.368C1.68432 11.161 1.90732 10.775 1.90732 10.361C1.90732 9.947 1.68432 9.56 1.32532 9.353C0.0583198 8.617 -0.37568 6.988 0.35432 5.72L1.03232 4.607C1.75332 3.353 3.38332 2.911 4.65432 3.641C4.82732 3.744 5.01532 3.796 5.20632 3.798C5.82932 3.798 6.35032 3.284 6.36032 2.652C6.35632 1.955 6.63132 1.286 7.13232 0.781C7.63532 0.277 8.30332 0 9.01432 0H10.2673C10.9833 0 11.6793 0.294 12.1783 0.805C12.6763 1.319 12.9513 2.024 12.9303 2.739C12.9323 2.9 12.9853 3.086 13.0813 3.249C13.2403 3.519 13.4913 3.709 13.7893 3.787C14.0873 3.861 14.3993 3.821 14.6643 3.664C15.9443 2.933 17.5733 3.371 18.3043 4.641L18.9273 5.72C18.9433 5.749 18.9573 5.777 18.9693 5.806C19.6313 7.057 19.1893 8.632 17.9593 9.351C17.7803 9.454 17.6353 9.598 17.5353 9.772C17.3803 10.041 17.3373 10.361 17.4153 10.655C17.4953 10.955 17.6863 11.204 17.9553 11.358C18.5623 11.707 19.0153 12.295 19.1963 12.974C19.3773 13.652 19.2783 14.388 18.9253 14.995L18.2613 16.101C17.5303 17.357 15.9013 17.792 14.6343 17.06C14.4653 16.963 14.2703 16.91 14.0763 16.905H14.0703C13.7813 16.905 13.4843 17.028 13.2683 17.243C13.0493 17.462 12.9293 17.754 12.9313 18.064C12.9243 19.533 11.7293 20.721 10.2673 20.721Z" fill="#B2B2B2"/>
</g>
<path fill-rule="evenodd" clip-rule="evenodd" d="M9.64381 8.47461C8.60381 8.47461 7.75781 9.32161 7.75781 10.3616C7.75781 11.4016 8.60381 12.2466 9.64381 12.2466C10.6838 12.2466 11.5298 11.4016 11.5298 10.3616C11.5298 9.32161 10.6838 8.47461 9.64381 8.47461ZM9.64381 13.7466C7.77681 13.7466 6.25781 12.2286 6.25781 10.3616C6.25781 8.49461 7.77681 6.97461 9.64381 6.97461C11.5108 6.97461 13.0298 8.49461 13.0298 10.3616C13.0298 12.2286 11.5108 13.7466 9.64381 13.7466Z" fill="#B2B2B2"/>
</svg>
