<svg width="18" height="21" viewBox="0 0 18 21" fill="none" xmlns="http://www.w3.org/2000/svg">
<mask id="mask0_615_5106" style="mask-type:alpha" maskUnits="userSpaceOnUse" x="0" y="0" width="18" height="21">
<path fill-rule="evenodd" clip-rule="evenodd" d="M0 0H17.0388V20.8467H0V0Z" fill="white"/>
</mask>
<g mask="url(#mask0_615_5106)">
<path fill-rule="evenodd" clip-rule="evenodd" d="M5.342 1.5C2.793 1.5 1.5 2.482 1.5 4.421V19.145C1.5 19.239 1.554 19.29 1.599 19.316C1.644 19.344 1.715 19.364 1.797 19.318L8.179 15.738C8.407 15.611 8.686 15.61 8.915 15.739L15.242 19.313C15.325 19.361 15.396 19.339 15.441 19.312C15.486 19.285 15.539 19.234 15.539 19.14V4.604C15.539 3.837 15.539 1.5 11.701 1.5H5.342ZM1.699 20.847C1.404 20.847 1.109 20.768 0.841 20.61C0.314 20.303 0 19.754 0 19.145V4.421C0 1.611 1.947 0 5.342 0H11.701C15.093 0 17.039 1.679 17.039 4.604V19.14C17.039 19.75 16.725 20.299 16.197 20.606C15.671 20.914 15.037 20.92 14.505 20.62L8.545 17.253L2.53 20.627C2.27 20.773 1.985 20.847 1.699 20.847Z" fill="black"/>
</g>
<path fill-rule="evenodd" clip-rule="evenodd" d="M12.1383 8.22852H4.82031C4.40631 8.22852 4.07031 7.89252 4.07031 7.47852C4.07031 7.06452 4.40631 6.72852 4.82031 6.72852H12.1383C12.5523 6.72852 12.8883 7.06452 12.8883 7.47852C12.8883 7.89252 12.5523 8.22852 12.1383 8.22852Z" fill="black"/>
</svg>
