<svg width="21" height="21" viewBox="0 0 21 21" fill="none" xmlns="http://www.w3.org/2000/svg">
<path fill-rule="evenodd" clip-rule="evenodd" d="M14.577 20.3686H5.753C2.312 20.3686 0 17.9536 0 14.3596V6.04562C0 2.45162 2.312 0.0366211 5.753 0.0366211H9.492C9.906 0.0366211 10.242 0.372621 10.242 0.786621C10.242 1.20062 9.906 1.53662 9.492 1.53662H5.753C3.169 1.53662 1.5 3.30662 1.5 6.04562V14.3596C1.5 17.0986 3.169 18.8686 5.753 18.8686H14.577C17.161 18.8686 18.831 17.0986 18.831 14.3596V10.3316C18.831 9.91762 19.167 9.58162 19.581 9.58162C19.995 9.58162 20.331 9.91762 20.331 10.3316V14.3596C20.331 17.9536 18.018 20.3686 14.577 20.3686Z" fill="#191919"/>
<path fill-rule="evenodd" clip-rule="evenodd" d="M6.86719 13.4278H9.84419C10.2242 13.4278 10.5802 13.2808 10.8492 13.0118L18.3582 5.50276C18.6662 5.19476 18.8362 4.78476 18.8362 4.34876C18.8362 3.91176 18.6662 3.50076 18.3582 3.19276L17.1412 1.97576C16.5042 1.34076 15.4682 1.34076 14.8302 1.97576L7.35719 9.44876C7.09819 9.70776 6.95119 10.0518 6.94219 10.4168L6.86719 13.4278ZM9.84389 14.928H6.09789C5.89589 14.928 5.70189 14.846 5.56089 14.701C5.41989 14.557 5.34289 14.362 5.34789 14.159L5.44189 10.38C5.46089 9.628 5.76389 8.921 6.29589 8.388H6.29689L13.7699 0.915C14.9919 -0.305 16.9789 -0.305 18.2009 0.915L19.4179 2.132C20.0109 2.724 20.3369 3.511 20.3359 4.349C20.3359 5.187 20.0099 5.973 19.4179 6.564L11.9089 14.073C11.3579 14.624 10.6239 14.928 9.84389 14.928Z" fill="#191919"/>
<path fill-rule="evenodd" clip-rule="evenodd" d="M17.7318 7.91636C17.5398 7.91636 17.3478 7.84336 17.2018 7.69636L12.6358 3.13036C12.3428 2.83736 12.3428 2.36236 12.6358 2.06936C12.9288 1.77636 13.4028 1.77636 13.6958 2.06936L18.2618 6.63636C18.5548 6.92936 18.5548 7.40336 18.2618 7.69636C18.1158 7.84336 17.9238 7.91636 17.7318 7.91636Z" fill="#191919"/>
</svg>
