<svg width="16" height="19" viewBox="0 0 16 19" fill="none" xmlns="http://www.w3.org/2000/svg">
<path d="M1 8.80838C1 7.45062 1 6.77174 1.27446 6.175C1.54892 5.57826 2.06437 5.13645 3.09525 4.25284L4.09525 3.39569C5.95857 1.79856 6.89023 1 8 1C9.10977 1 10.0414 1.79856 11.9047 3.39569L12.9047 4.25284C13.9356 5.13645 14.4511 5.57826 14.7255 6.175C15 6.77174 15 7.45062 15 8.80838V13.0488C15 14.9344 15 15.8772 14.4142 16.463C13.8284 17.0488 12.8856 17.0488 11 17.0488H5C3.11438 17.0488 2.17157 17.0488 1.58579 16.463C1 15.8772 1 14.9344 1 13.0488V8.80838Z" stroke="#B2B2B2" stroke-width="2"/>
<path d="M10.5 17.0488V12.0488C10.5 11.4965 10.0523 11.0488 9.5 11.0488H6.5C5.94772 11.0488 5.5 11.4965 5.5 12.0488V17.0488" stroke="#B2B2B2" stroke-width="2" stroke-linecap="round" stroke-linejoin="round"/>
</svg>
