<svg width="40" height="40" viewBox="0 0 40 40" fill="none" xmlns="http://www.w3.org/2000/svg">
<path fill-rule="evenodd" clip-rule="evenodd" d="M24.577 30.3681H15.753C12.312 30.3681 10 27.9531 10 24.3591V16.0451C10 12.4511 12.312 10.0361 15.753 10.0361H19.492C19.906 10.0361 20.242 10.3721 20.242 10.7861C20.242 11.2001 19.906 11.5361 19.492 11.5361H15.753C13.169 11.5361 11.5 13.3061 11.5 16.0451V24.3591C11.5 27.0981 13.169 28.8681 15.753 28.8681H24.577C27.161 28.8681 28.831 27.0981 28.831 24.3591V20.3311C28.831 19.9171 29.167 19.5811 29.581 19.5811C29.995 19.5811 30.331 19.9171 30.331 20.3311V24.3591C30.331 27.9531 28.018 30.3681 24.577 30.3681Z" fill="#191919"/>
<path fill-rule="evenodd" clip-rule="evenodd" d="M16.8672 23.4278H19.8442C20.2242 23.4278 20.5802 23.2808 20.8492 23.0118L28.3582 15.5028C28.6662 15.1948 28.8362 14.7848 28.8362 14.3488C28.8362 13.9118 28.6662 13.5008 28.3582 13.1928L27.1412 11.9758C26.5042 11.3408 25.4682 11.3408 24.8302 11.9758L17.3572 19.4488C17.0982 19.7078 16.9512 20.0518 16.9422 20.4168L16.8672 23.4278ZM19.8439 24.928H16.0979C15.8959 24.928 15.7019 24.846 15.5609 24.701C15.4199 24.557 15.3429 24.362 15.3479 24.159L15.4419 20.38C15.4609 19.628 15.7639 18.921 16.2959 18.388H16.2969L23.7699 10.915C24.9919 9.695 26.9789 9.695 28.2009 10.915L29.4179 12.132C30.0109 12.724 30.3369 13.511 30.3359 14.349C30.3359 15.187 30.0099 15.973 29.4179 16.564L21.9089 24.073C21.3579 24.624 20.6239 24.928 19.8439 24.928Z" fill="#191919"/>
<path fill-rule="evenodd" clip-rule="evenodd" d="M27.7318 17.9164C27.5398 17.9164 27.3478 17.8434 27.2018 17.6964L22.6358 13.1304C22.3428 12.8374 22.3428 12.3624 22.6358 12.0694C22.9288 11.7764 23.4028 11.7764 23.6958 12.0694L28.2618 16.6364C28.5548 16.9294 28.5548 17.4034 28.2618 17.6964C28.1158 17.8434 27.9238 17.9164 27.7318 17.9164Z" fill="#191919"/>
</svg>
