<svg width="18" height="14" viewBox="0 0 18 14" fill="none" xmlns="http://www.w3.org/2000/svg">
<path d="M17.5 6.77441C17.5 7.15411 17.2178 7.4679 16.8518 7.51757L16.75 7.52441L1.75 7.52441C1.33579 7.52441 1 7.18863 1 6.77441C1 6.39472 1.28215 6.08092 1.64823 6.03126L1.75 6.02441L16.75 6.02441C17.1642 6.02441 17.5 6.3602 17.5 6.77441Z" fill="#191919"/>
<path d="M8.32801 12.2675C8.62154 12.5598 8.62256 13.0347 8.3303 13.3282C8.06461 13.595 7.648 13.6201 7.35392 13.4029L7.26964 13.3305L1.21964 7.30647C0.952004 7.03998 0.927658 6.62187 1.14661 6.3278L1.2196 6.24357L7.2696 0.218573C7.5631 -0.0737131 8.03797 -0.0727299 8.33026 0.220769C8.59597 0.487586 8.61931 0.904299 8.40085 1.19746L8.32806 1.28143L2.81203 6.7753L8.32801 12.2675Z" fill="#191919"/>
</svg>
