<svg width="79" height="37" viewBox="0 0 79 37" fill="none" xmlns="http://www.w3.org/2000/svg">
<path d="M12.96 19.92C12.92 20.24 12.84 20.84 12.8 21.12C12.8 21.52 12.72 21.96 12.64 22.4C12.56 22.84 12.52 23.28 12.52 23.72C12.52 24.28 12.6 24.88 13.12 25.48C13.56 25.6 14.2 25.6 14.44 25.24C14.8 24.88 14.84 24.56 14.56 24.16C14.64 23.64 14.64 23.24 14.68 22.68C14.76 21.84 14.84 20.88 15.04 19.96C15.12 20.04 15.24 20.12 15.64 20.2C17.92 18.72 18.48 18.48 21 17.76C21.92 17.6 22.56 17.44 23.28 17.24C24.28 16.96 25.28 16.64 26.44 16.56L26.8 16.2C27.04 16.04 27.16 16.12 27.52 16.08C28.08 16.04 28.72 16 28.32 14.88C28.28 14.92 28.16 14.84 27.8 14.8C27.2 14.96 27.04 14.88 26.72 14.88C26.28 14.88 25.92 14.88 25.68 15L25.44 15.08C24.12 15.12 22.76 15.36 21.52 15.64C20.96 15.76 20.6 15.84 20.08 15.92C19.52 16.08 18.88 16.28 18.48 16.4C17.48 16.72 16.76 17 15.44 17.84C15.56 16.88 15.64 16.76 15.84 15.88C16.04 14.88 16.24 13.92 16.32 12.88L16.24 12.6C16.04 12.28 15.08 11.48 14.36 12.28C14.16 13.36 14.04 14.6 13.88 15.68V15.88C13.64 16.12 13.64 16.36 13.6 16.6C13.56 16.8 13.6 16.92 13.48 17.08C13.32 18 13.12 18.96 12.96 19.92ZM12.04 19.52C11.8 19.2 11.12 19.56 10.84 19.6C10.32 19.64 10.08 19.72 9.84 19.8C9.08 20.16 8.32 20.4 7.8 20.72C7.48 20.92 7.12 21.12 6.76 21.28C7.16 19.36 7.4 17.48 7.48 15.36L7.68 15.16L7.4 14.32C6.72 13 6.04 13.68 5.36 14.24V14.2C5.12 14.4 4.92 14.56 4.92 14.6C4.48 14.76 4.24 14.88 3.96 15C3.76 15.12 3.56 15.2 3.4 15.28C3.32 14.72 2.92 14.52 2.56 14.24L2.64 14.28C2.56 14.2 2.32 14.08 2.16 14C1.68 14.16 1.28 14.4 1.32 14.76C1.24 15.24 1.24 15.64 1.24 16.12C1.2 16.28 1.2 16.44 1.16 16.6C0.88 18.24 0.56 20.28 0.56 22.36C0.56 23.36 0.64 24.36 0.88 25.44C1.16 25.72 1.8 25.96 2.08 25.8C2.32 25.76 2.4 25.56 2.44 25.4C2.76 25.4 3.12 25.2 3.4 25C3.72 25 3.88 24.76 4.08 24.64C4.32 24.48 4.56 24.36 4.8 24.52C5.44 24.44 5.56 24.16 5.72 23.96C5.76 23.92 5.8 23.84 5.84 23.8C7.56 23 8.92 22.32 10.52 21.28L12.4 20.04L12.04 19.52ZM4.4 22.16C4.2 22.28 3.52 22.6 3.48 22.64C3.24 22.8 2.88 23 2.6 23.12C2.6 21.96 2.76 20.8 2.88 19.72C3 19 3.12 18.4 3.16 17.64C4 17.2 4.56 16.96 5.36 16.6C5.16 18.6 4.92 20.28 4.4 22.16ZM33.2663 16.92C32.9463 17.08 32.8263 17.04 32.7463 17C32.4263 16.96 32.1063 16.88 31.9063 17.08C33.5063 14.96 34.8263 12.92 36.2663 10.76C36.4663 10.48 36.7863 10 36.9863 9.68C36.9863 9.64 37.0263 9.6 37.0263 9.52C37.1463 9.08 37.3063 8.68 36.5863 8.2C36.5063 8.16 36.4663 8.16 36.3863 8.12C36.0663 7.96 35.7863 7.8 35.3863 8.08C34.7463 8.36 33.8663 8.68 33.2263 8.8C33.1063 8.84 32.9463 8.84 32.8263 8.88C33.0663 7.44 33.3063 6.4 33.6263 4.88C33.9063 3.72 34.1863 2.56 34.3863 1.44L34.2263 1.04C33.7863 0.759999 32.6263 0.039999 32.1863 1.04C31.7863 3.72 31.2663 6.72 30.7463 9.6C30.2663 9.84 29.6263 9.84 29.0663 10.16C28.1063 10.32 27.3463 10.84 26.5063 11.52C26.3863 12.16 26.3063 13.16 27.3063 13.56C28.3463 12.84 29.3863 12.2 30.4263 11.88C31.5863 11.44 32.7463 11.08 33.8263 10.8L31.4263 14.6C30.1862 16.56 29.3463 17.64 28.9063 18.2C28.7463 18.44 28.5863 18.64 28.4663 18.84L27.9863 19.52C27.9863 19.52 27.0663 21.28 27.0263 21.72L27.4663 22.6C29.3063 20.52 30.5063 19.04 31.8663 17.16C31.8263 17.28 31.7863 17.4 31.7863 17.6C31.8263 18.12 31.8263 18.6 31.8663 19.04C31.9463 20.76 32.0263 22.52 32.0263 24.24C32.0263 25.52 31.9863 26.8 31.8663 28.2C31.7463 28.64 32.0263 29.12 32.2663 29.48C32.7063 29.56 32.9863 29.44 33.1863 29.24L33.4663 29.08C33.6663 28.36 33.7463 27.64 33.8663 26.92L33.9863 25.92V21.4C33.9863 20.36 33.9863 19.08 33.9063 17.84L33.2663 16.92ZM44.7063 23.36C44.4663 22.56 43.5063 22.56 42.9863 22.56C42.4263 22.84 42.0263 23.04 41.6663 23.2C41.2663 23.4 40.7863 23.64 40.4263 23.84C40.1063 23.52 39.3863 23.24 38.6663 23.08C38.5063 24.28 38.3063 25.76 38.1063 26.84C37.8263 28.32 37.6263 29.56 37.4263 31.16C34.2663 31.6 30.9863 32.24 27.5462 32.96C27.1863 33.68 27.5863 34.24 27.9063 34.56C28.8263 34.84 29.9463 34.56 30.8263 34.24H30.7862C32.0663 33.76 33.4663 33.64 34.8663 33.48C35.9463 33.36 37.0663 33.24 38.1863 32.96C38.6663 32.84 39.2263 32.72 39.6663 32.6C40.5063 32.64 41.2663 32.48 42.0263 32.32C43.4263 32.08 44.8263 32 46.3463 31.72C46.3463 31.72 46.9863 31.64 48.5863 31.36C49.3463 31.44 49.7463 31.32 50.5863 31.04C51.2263 31.2 51.7863 31.04 52.4263 30.88C52.7063 30.8 53.0663 30.76 53.4663 30.68C53.5463 30.6 53.9063 30.32 54.0663 30.32L54.2263 29.64L53.8263 29.44C53.1063 29.2 53.1863 29.32 53.0663 29.32H52.8663C50.9063 29.4 48.9063 29.72 48.1063 29.8C47.5463 29.84 46.6663 29.88 45.3063 30.08C44.9062 30.16 44.5463 30.2 44.1063 30.24L42.9863 30.36C42.9463 30 42.9463 29.52 42.9463 29.16C42.9463 27.8 43.2263 26.76 43.7463 25.56C43.8263 25.4 43.9463 25.16 44.1463 24.8C44.3463 24.44 44.5863 24.12 44.7063 23.56V23.36ZM47.1063 7.92C46.8663 7.56 46.3063 7.28 45.8263 7.28C45.4263 7.12 45.0663 7 44.9062 7.76L44.4663 10.04C44.5863 10.24 44.5063 10.44 44.4263 10.6C44.3463 10.84 44.2263 11.12 44.2263 11.4C44.1463 11.84 44.0263 12.28 43.9463 12.72C43.3863 14.96 43.2263 17.64 43.0663 20.32L43.3463 20.8C44.2263 21.04 44.5463 20.44 44.7863 20.04C44.8663 19.92 44.9463 19.8 45.1062 19.64C45.1463 18.6 45.2663 17.96 45.4263 17.08C45.5863 16.2 45.7063 15.08 45.7463 14.16C46.2263 12.84 46.4663 11.76 46.6663 10.64C46.8263 9.8 46.9863 9 47.1863 8.24L47.1063 7.92ZM39.7863 29.04C39.9063 28.12 39.9463 27.32 40.1063 26.4C40.5463 26.24 41.0663 25.84 41.4263 25.52C41.1063 26.64 40.8663 27.68 40.8663 28.92C40.8663 29.52 40.9063 30.08 41.0263 30.56C40.5863 30.64 40.0263 30.76 39.5863 30.76L39.7863 29.04ZM53.0025 30.48C52.3225 30.2 51.9625 30.52 51.6425 30.88L51.4825 31.12L51.2425 31.2C50.6825 31.6 50.7225 32 50.8025 32.44C50.8425 32.64 50.8025 32.88 50.7625 33.08C50.7625 33.2 50.8025 33.32 50.8025 33.48C50.8425 34.52 50.9625 35.8 52.0425 36.12C52.5225 36.12 53.0025 35.8 53.2025 35.36C53.1625 35.12 53.1625 34.8 53.1225 34.52C53.0425 34 53.0025 33.36 53.0025 32.8C53.0025 32.28 53.0425 31.92 53.3225 31.36L53.0025 30.48ZM67.6663 20.64C67.2263 20.36 66.7863 20.2 66.0663 20.32C64.9063 22.36 64.3463 23.92 64.2663 26.2C64.1063 26.8 64.1862 27.4 64.3063 27.96C63.9062 28 63.5463 28.08 63.1463 28.16C62.9863 28.2 62.8263 28.2 62.7063 28.24C62.8663 27.48 62.8663 26.76 62.9063 25.88C62.9463 25.04 62.9863 24.24 63.1863 23.36C63.2263 23.24 63.2663 23.16 63.3063 23.04C63.5463 22.56 63.7063 21.24 62.5063 21.28C62.1063 21.24 61.7463 21.16 61.4263 21.72C60.7063 23.08 60.7463 24.52 60.7463 26.12C60.7463 26.84 60.7863 27.48 60.6263 28.64C58.9062 28.96 57.5063 29.56 55.5863 30.48C55.6663 30.4 55.3863 30.56 55.3063 30.64C54.7863 30.96 54.1463 31.28 54.1463 32.12C54.3863 32.68 54.7463 33.08 55.5463 33.08C58.1063 31.28 61.5463 30.72 64.2663 30.28C67.7463 29.6 71.3863 29.08 75.1863 28.92C75.4263 28.88 76.9063 28.92 77.2263 28.76C77.2263 28.76 77.2663 28.84 77.6663 28.84C77.9863 28.96 78.3463 29 78.5063 28.52L78.8663 28.16L78.5063 27.52L77.4262 27.12C77.1463 27.12 76.8663 27.12 76.5463 27.08C76.1863 27.04 75.7463 27 75.2263 27L75.1863 27.08C74.9463 26.96 74.7063 26.88 74.5063 27.08C74.3863 27.04 72.9063 27 72.6263 26.96C72.3063 26.92 72.0263 26.92 71.7863 27.12C70.5863 27.24 69.3863 27.4 68.1063 27.6C68.0263 27.6 67.9863 27.64 67.9063 27.64L66.6263 27.68C66.5063 27.68 66.4263 27.68 66.2663 27.72C66.3463 27.16 66.3463 27.16 66.4263 26.64C66.6663 24.92 66.8663 23.32 67.6263 21.92C67.8663 21.76 67.9063 21.4 67.8263 21.12C67.8263 21.16 67.8263 21.16 67.6663 20.64ZM67.5863 10.6C67.5863 9.88 66.8263 9.72 66.3063 9.6C66.2263 9.6 65.8263 9.56 65.7863 9.56C64.6663 11.72 63.5463 13.96 63.6263 16.48C63.0263 16.84 62.6263 16.96 62.1463 17.12C62.0263 17.16 61.7463 17.24 61.6263 17.28C61.6663 16.84 61.6663 16.44 61.6663 15.96C61.7063 14.32 61.7463 12.72 62.1863 11.4C61.9463 10.8 60.7863 10.52 60.1863 10.64C59.9463 11.32 59.7463 12.08 59.6663 12.52C59.5863 13.32 59.5463 14.32 59.5463 15.36C59.5463 16.32 59.5863 17.16 59.8263 17.92C58.9062 18.32 58.1863 18.76 57.3063 19.48L57.2263 20.2C57.4663 20.4 57.5063 20.48 57.5863 20.6C57.7463 20.92 58.0663 21.24 58.6263 21.16C62.9463 18.36 68.3463 17.08 73.3463 16.16C74.7463 15.8 73.6663 16.2 76.1463 15.32L75.9462 14.84C75.9063 14.32 75.3463 14.28 74.8663 14.12C71.9063 14.68 70.7863 14.72 69.6663 14.88C69.6263 14.92 69.5063 15 69.4263 15.04C68.5463 15 67.6663 15.24 66.8663 15.68C66.5063 15.68 66.1863 15.76 65.9063 15.88C65.8663 15.92 65.7463 15.96 65.7063 15.96C65.8663 14.48 66.4263 13.28 67.0263 12C67.2263 11.56 67.3863 11.16 67.5463 10.76L67.5863 10.6ZM69.9863 2.84C69.7863 2.88 69.7063 2.84 69.6663 2.84C69.4263 2.68 69.1463 2.44 68.7063 2.76C65.5463 3.2 62.8663 4.2 59.9463 5.36C59.5463 5.56 59.3863 5.6 59.2663 5.6C59.0263 5.68 58.7863 5.72 58.3863 5.92C58.3063 5.96 58.0663 6 57.9063 6.04C57.5463 6.08 57.1863 6.24 56.8263 6.72C56.8263 7.32 57.5063 8.04 57.9463 8.28C58.6263 8.12 59.5063 7.84 60.1463 7.44C61.2263 7.12 62.7463 6.6 64.1063 6.04C65.7863 5.4 67.4263 4.8 69.2263 4.44C69.3063 4.4 69.3463 4.4 69.4263 4.4C69.8263 4.36 70.3063 4.28 70.5863 3.6L69.9863 2.84Z" fill="#53B7DD"/>
</svg>
