<svg width="335" height="170" viewBox="0 0 335 170" fill="none" xmlns="http://www.w3.org/2000/svg">
<g filter="url(#filter0_d_4_68)">
<path d="M0 20C0 8.9543 8.9543 0 20 0H253.371C254.513 0 255.586 0.550936 256.252 1.47976V1.47976C257.665 3.45277 260.599 3.45277 262.013 1.47976V1.47976C262.679 0.550936 263.751 0 264.894 0L315 0C326.046 0 335 8.95431 335 20V150C335 161.046 326.046 170 315 170H264.361C263.266 170 262.26 169.395 261.747 168.428V168.428C260.634 166.331 257.63 166.331 256.518 168.428V168.428C256.005 169.395 254.999 170 253.904 170H20C8.95432 170 0 161.046 0 150V20Z" fill="#72B6E7"/>
</g>
<defs>
<filter id="filter0_d_4_68" x="-24" y="-16" width="383" height="218" filterUnits="userSpaceOnUse" color-interpolation-filters="sRGB">
<feFlood flood-opacity="0" result="BackgroundImageFix"/>
<feColorMatrix in="SourceAlpha" type="matrix" values="0 0 0 0 0 0 0 0 0 0 0 0 0 0 0 0 0 0 127 0" result="hardAlpha"/>
<feOffset dy="8"/>
<feGaussianBlur stdDeviation="12"/>
<feComposite in2="hardAlpha" operator="out"/>
<feColorMatrix type="matrix" values="0 0 0 0 0.533333 0 0 0 0 0.533333 0 0 0 0 0.533333 0 0 0 0.15 0"/>
<feBlend mode="normal" in2="BackgroundImageFix" result="effect1_dropShadow_4_68"/>
<feBlend mode="normal" in="SourceGraphic" in2="effect1_dropShadow_4_68" result="shape"/>
</filter>
</defs>
</svg>
