<svg width="15" height="15" viewBox="0 0 15 15" fill="none" xmlns="http://www.w3.org/2000/svg">
<circle cx="7.5" cy="7.5" r="7" stroke="#7F7F7F"/>
<path fill-rule="evenodd" clip-rule="evenodd" d="M10.5789 6.78947C10.5789 7.4621 10.3541 8.01082 9.97665 8.42693C9.96215 8.469 9.94152 8.51033 9.91425 8.54996L7.95123 11.4017C7.75253 11.6904 7.32623 11.6904 7.12752 11.4017L5.16438 8.54997C5.14949 8.52834 5.13658 8.5062 5.12557 8.48371C4.73219 8.06122 4.5 7.49316 4.5 6.78947C4.5 5.11082 5.86082 3.75 7.53947 3.75C9.21813 3.75 10.5789 5.11082 10.5789 6.78947ZM7.53896 8.09257C8.25838 8.09257 8.84159 7.50936 8.84159 6.78994C8.84159 6.07051 8.25838 5.4873 7.53896 5.4873C6.81954 5.4873 6.23633 6.07051 6.23633 6.78994C6.23633 7.50936 6.81954 8.09257 7.53896 8.09257Z" fill="#7F7F7F"/>
</svg>
