<svg width="20" height="19" viewBox="0 0 20 19" fill="none" xmlns="http://www.w3.org/2000/svg">
<path fill-rule="evenodd" clip-rule="evenodd" d="M18.7491 18.9395H11.4961C11.0821 18.9395 10.7461 18.6035 10.7461 18.1895C10.7461 17.7755 11.0821 17.4395 11.4961 17.4395H18.7491C19.1631 17.4395 19.4991 17.7755 19.4991 18.1895C19.4991 18.6035 19.1631 18.9395 18.7491 18.9395Z" fill="#B2B2B2"/>
<mask id="mask0_481_260" style="mask-type:alpha" maskUnits="userSpaceOnUse" x="0" y="0" width="18" height="19">
<path fill-rule="evenodd" clip-rule="evenodd" d="M0 0H17.1806V18.9395H0V0Z" fill="white"/>
</mask>
<g mask="url(#mask0_481_260)">
<path fill-rule="evenodd" clip-rule="evenodd" d="M11.1099 2.01644L1.69491 13.7914C1.52391 14.0054 1.46091 14.2814 1.52391 14.5464L2.20491 17.4314L5.24391 17.3934C5.53291 17.3904 5.79991 17.2614 5.97691 17.0414C9.19391 13.0164 15.3269 5.34244 15.5009 5.11744C15.6649 4.85144 15.7289 4.47544 15.6429 4.11344C15.5549 3.74244 15.3239 3.42744 14.9909 3.22644C14.9199 3.17744 13.2349 1.86944 13.1829 1.82844C12.5489 1.32044 11.6239 1.40844 11.1099 2.01644ZM1.61327 18.9396C1.26627 18.9396 0.964274 18.7016 0.883274 18.3626L0.0642743 14.8916C-0.104726 14.1726 0.0632743 13.4306 0.524274 12.8546L9.94427 1.07264C9.94827 1.06864 9.95127 1.06364 9.95527 1.05964C10.9883 -0.175357 12.8563 -0.357357 14.1163 0.653643C14.1663 0.692643 15.8393 1.99264 15.8393 1.99264C16.4473 2.35464 16.9223 3.00164 17.1023 3.76764C17.2813 4.52564 17.1513 5.30764 16.7343 5.96864C16.7033 6.01764 16.6763 6.05964 7.14827 17.9796C6.68927 18.5516 6.00127 18.8846 5.26227 18.8936L1.62327 18.9396H1.61327Z" fill="#B2B2B2"/>
</g>
<path fill-rule="evenodd" clip-rule="evenodd" d="M14.2234 8.68536C14.0634 8.68536 13.9034 8.63436 13.7664 8.53036L8.31442 4.34236C7.98642 4.09036 7.92442 3.62036 8.17642 3.29036C8.42942 2.96236 8.89942 2.90136 9.22842 3.15336L14.6814 7.34036C15.0094 7.59236 15.0714 8.06336 14.8184 8.39236C14.6714 8.58436 14.4484 8.68536 14.2234 8.68536Z" fill="#B2B2B2"/>
</svg>
