<svg width="40" height="40" viewBox="0 0 40 40" fill="none" xmlns="http://www.w3.org/2000/svg">
<path d="M12.4507 20.9082L19.4033 27.4395C19.6428 27.6644 19.7625 27.7769 19.9037 27.8046C19.9673 27.8171 20.0327 27.8171 20.0963 27.8046C20.2375 27.7769 20.3572 27.6644 20.5967 27.4395L27.5493 20.9082C29.5055 19.0706 29.743 16.0466 28.0978 13.9261L27.7885 13.5273C25.8203 10.9906 21.8696 11.416 20.4867 14.3137C20.2913 14.723 19.7087 14.723 19.5133 14.3137C18.1304 11.416 14.1797 10.9906 12.2115 13.5273L11.9022 13.9261C10.2569 16.0466 10.4945 19.0706 12.4507 20.9082Z" stroke="#191919" stroke-width="2"/>
</svg>
