<svg width="22" height="19" viewBox="0 0 22 19" fill="none" xmlns="http://www.w3.org/2000/svg">
<path d="M3.45067 10.9082L10.4033 17.4395C10.6428 17.6644 10.7625 17.7769 10.9037 17.8046C10.9673 17.8171 11.0327 17.8171 11.0963 17.8046C11.2375 17.7769 11.3572 17.6644 11.5967 17.4395L18.5493 10.9082C20.5055 9.07059 20.743 6.0466 19.0978 3.92607L18.7885 3.52734C16.8203 0.99058 12.8696 1.41601 11.4867 4.31365C11.2913 4.72296 10.7087 4.72296 10.5133 4.31365C9.13037 1.41601 5.17972 0.990584 3.21154 3.52735L2.90219 3.92607C1.25695 6.0466 1.4945 9.07059 3.45067 10.9082Z" stroke="#B2B2B2" stroke-width="2"/>
</svg>
