<svg width="3" height="159" viewBox="0 0 3 159" fill="none" xmlns="http://www.w3.org/2000/svg">
<line x1="1.5" y1="157.5" x2="1.5" y2="154.5" stroke="white" stroke-width="3" stroke-linecap="square"/>
<line x1="1.5" y1="148.5" x2="1.5" y2="145.5" stroke="white" stroke-width="3" stroke-linecap="square"/>
<line x1="1.5" y1="139.5" x2="1.5" y2="136.5" stroke="white" stroke-width="3" stroke-linecap="square"/>
<line x1="1.5" y1="130.5" x2="1.5" y2="127.5" stroke="white" stroke-width="3" stroke-linecap="square"/>
<line x1="1.5" y1="121.5" x2="1.5" y2="118.5" stroke="white" stroke-width="3" stroke-linecap="square"/>
<line x1="1.5" y1="112.5" x2="1.5" y2="109.5" stroke="white" stroke-width="3" stroke-linecap="square"/>
<line x1="1.5" y1="103.5" x2="1.5" y2="100.5" stroke="white" stroke-width="3" stroke-linecap="square"/>
<line x1="1.5" y1="94.5" x2="1.5" y2="91.5" stroke="white" stroke-width="3" stroke-linecap="square"/>
<line x1="1.5" y1="85.5" x2="1.5" y2="82.5" stroke="white" stroke-width="3" stroke-linecap="square"/>
<line x1="1.5" y1="76.5" x2="1.5" y2="73.5" stroke="white" stroke-width="3" stroke-linecap="square"/>
<line x1="1.5" y1="67.5" x2="1.5" y2="64.5" stroke="white" stroke-width="3" stroke-linecap="square"/>
<line x1="1.5" y1="58.5" x2="1.5" y2="55.5" stroke="white" stroke-width="3" stroke-linecap="square"/>
<line x1="1.5" y1="49.5" x2="1.5" y2="46.5" stroke="white" stroke-width="3" stroke-linecap="square"/>
<line x1="1.5" y1="40.5" x2="1.5" y2="37.5" stroke="white" stroke-width="3" stroke-linecap="square"/>
<line x1="1.5" y1="31.5" x2="1.5" y2="28.5" stroke="white" stroke-width="3" stroke-linecap="square"/>
<line x1="1.5" y1="22.5" x2="1.5" y2="19.5" stroke="white" stroke-width="3" stroke-linecap="square"/>
<line x1="1.5" y1="13.5" x2="1.5" y2="10.5" stroke="white" stroke-width="3" stroke-linecap="square"/>
<line x1="1.5" y1="4.5" x2="1.5" y2="1.5" stroke="white" stroke-width="3" stroke-linecap="square"/>
</svg>
